<svg width="14" height="16" viewBox="0 0 14 16" fill="none" xmlns="http://www.w3.org/2000/svg">
<g id="&#237;&#148;&#140;&#235;&#160;&#136;&#236;&#157;&#180; &#235;&#166;&#172;&#236;&#138;&#164;&#237;&#138;&#184; &#236;&#149;&#132;&#236;&#157;&#180;&#236;&#189;&#152;">
<path id="Vector" d="M14 0.600007C14 0.410343 13.9077 0.231847 13.751 0.118631C13.5944 0.00541519 13.3919 -0.0291927 13.2049 0.0253113L4.96958 2.42531C4.70832 2.50145 4.52941 2.73504 4.52941 3.00001V10.9018C4.06254 10.5855 3.49475 10.4 2.88235 10.4C1.29047 10.4 0 11.6536 0 13.2C0 14.7464 1.29047 16 2.88235 16C4.47424 16 5.76471 14.7464 5.76471 13.2C5.76471 13.1541 5.76357 13.1085 5.76132 13.0631C5.76356 13.0424 5.76471 13.0213 5.76471 13V6.6464L12.7647 4.60642V9.30184C12.2978 8.98552 11.73 8.8 11.1176 8.8C9.52576 8.8 8.23529 10.0536 8.23529 11.6C8.23529 13.1464 9.52576 14.4 11.1176 14.4C12.7095 14.4 14 13.1464 14 11.6C14 11.5542 13.9988 11.5085 13.9966 11.4632C13.9988 11.4424 14 11.4214 14 11.4V0.600007Z" fill="#427A5B"/>
</g>
</svg>
