<svg width="42" height="42" viewBox="0 0 42 42" fill="none" xmlns="http://www.w3.org/2000/svg">
<g id="&#236;&#157;&#188;&#234;&#184;&#176; &#236;&#158;&#145;&#236;&#132;&#177; &#236;&#149;&#132;&#236;&#157;&#180;&#236;&#189;&#152;">
<path id="Vector" d="M42 21C42 32.5979 32.5979 42 21 42C9.40201 42 0 32.5979 0 21C0 9.40201 9.40201 0 21 0C32.5979 0 42 9.40201 42 21Z" fill="#427A5B"/>
<path id="Vector_2" d="M24.8911 12.0482C26.2885 10.6506 28.5543 10.6506 29.9519 12.0481C31.3493 13.4455 31.3493 15.7111 29.952 17.1086L29.0602 18.0006L23.9995 12.9399L24.8911 12.0482ZM22.9389 14.0006L12.941 23.9997C12.5347 24.4061 12.2491 24.9172 12.116 25.4762L11.0204 30.0777C10.9601 30.3311 11.0355 30.5976 11.2197 30.7817C11.4038 30.9659 11.6704 31.0413 11.9237 30.981L16.525 29.8855C17.0842 29.7523 17.5955 29.4666 18.0019 29.0601L27.9996 19.0613L22.9389 14.0006Z" fill="white"/>
</g>
</svg>
