<svg width="16" height="16" viewBox="0 0 16 16" fill="none" xmlns="http://www.w3.org/2000/svg">
<g id="&#237;&#153;&#136; &#236;&#149;&#132;&#236;&#157;&#180;&#236;&#189;&#152;" filter="url(#filter0_i_114_2555)">
<path id="Vector" d="M9.2896 0.446534C8.54471 -0.148845 7.45529 -0.148845 6.7104 0.446534L0.710364 5.24202C0.25992 5.60203 0 6.13193 0 6.69025V14.5263C0 15.3402 0.696444 16 1.55556 16H4.22222C5.08133 16 5.77778 15.3402 5.77778 14.5263V11.1556C5.77778 10.5836 6.25938 10.1181 6.85947 10.1033H9.14053C9.74062 10.1181 10.2222 10.5836 10.2222 11.1556V14.5263C10.2222 15.3402 10.9187 16 11.7778 16H14.4444C15.3036 16 16 15.3402 16 14.5263V6.69025C16 6.13193 15.7401 5.60203 15.2896 5.24202L9.2896 0.446534Z" fill="#427A5B"/>
</g>
<defs>
<filter id="filter0_i_114_2555" x="0" y="0" width="18" height="20" filterUnits="userSpaceOnUse" color-interpolation-filters="sRGB">
<feFlood flood-opacity="0" result="BackgroundImageFix"/>
<feBlend mode="normal" in="SourceGraphic" in2="BackgroundImageFix" result="shape"/>
<feColorMatrix in="SourceAlpha" type="matrix" values="0 0 0 0 0 0 0 0 0 0 0 0 0 0 0 0 0 0 127 0" result="hardAlpha"/>
<feOffset dx="2" dy="4"/>
<feGaussianBlur stdDeviation="2.5"/>
<feComposite in2="hardAlpha" operator="arithmetic" k2="-1" k3="1"/>
<feColorMatrix type="matrix" values="0 0 0 0 0 0 0 0 0 0 0 0 0 0 0 0 0 0 0.25 0"/>
<feBlend mode="normal" in2="shape" result="effect1_innerShadow_114_2555"/>
</filter>
</defs>
</svg>
