<svg width="21" height="20" viewBox="0 0 21 20" fill="none" xmlns="http://www.w3.org/2000/svg">
<g id="&#236;&#155;&#148;&#235;&#179;&#132; &#237;&#148;&#140;&#235;&#139;&#164; &#236;&#149;&#132;&#236;&#157;&#180;&#236;&#189;&#152;">
<path id="Vector" d="M15.2368 10C18.1436 10 20.5 7.76142 20.5 5C20.5 2.23858 18.1436 0 15.2368 0C12.3301 0 9.97368 2.23858 9.97368 5C9.97368 5.90641 10.2276 6.75648 10.6715 7.48955L7.81486 9.2976C7.04514 8.5 5.93931 8 4.71053 8C2.38512 8 0.5 9.7909 0.5 12C0.5 14.2091 2.38512 16 4.71053 16C6.07484 16 7.2876 15.3836 8.05702 14.4279L12.1484 16.371C12.1029 16.5738 12.0789 16.7843 12.0789 17C12.0789 18.6569 13.4927 20 15.2368 20C16.9809 20 18.3947 18.6569 18.3947 17C18.3947 15.3431 16.9809 14 15.2368 14C14.2865 14 13.4343 14.3988 12.8554 15.0298L8.76385 13.0866C8.86626 12.7411 8.92105 12.3766 8.92105 12C8.92105 11.4977 8.82361 11.0171 8.64569 10.5742L11.6589 8.667C12.5979 9.4942 13.8552 10 15.2368 10Z" fill="#222222"/>
</g>
</svg>
