<svg width="16" height="16" viewBox="0 0 16 16" fill="none" xmlns="http://www.w3.org/2000/svg">
<g id="&#236;&#130;&#173;&#236;&#160;&#156; &#236;&#149;&#132;&#236;&#157;&#180;&#236;&#189;&#152;">
<path id="Vector" d="M6.66667 3.27642H9.33334C9.33334 2.558 8.7364 1.97561 8 1.97561C7.2636 1.97561 6.66667 2.558 6.66667 3.27642ZM5.66667 3.27642C5.66667 2.01919 6.71134 1 8 1C9.28867 1 10.3333 2.01919 10.3333 3.27642H14.1667C14.4428 3.27642 14.6667 3.49482 14.6667 3.76423C14.6667 4.03363 14.4428 4.25203 14.1667 4.25203H13.2873L12.5059 12.1292C12.3819 13.3794 11.305 14.3333 10.0175 14.3333H5.98246C4.69503 14.3333 3.6181 13.3794 3.49409 12.1292L2.71272 4.25203H1.83334C1.5572 4.25203 1.33334 4.03363 1.33334 3.76423C1.33334 3.49482 1.5572 3.27642 1.83334 3.27642H5.66667ZM7 6.36585C7 6.09645 6.77614 5.87805 6.5 5.87805C6.22386 5.87805 6 6.09645 6 6.36585V11.2439C6 11.5133 6.22386 11.7317 6.5 11.7317C6.77614 11.7317 7 11.5133 7 11.2439V6.36585ZM9.5 5.87805C9.22387 5.87805 9 6.09645 9 6.36585V11.2439C9 11.5133 9.22387 11.7317 9.5 11.7317C9.77614 11.7317 10 11.5133 10 11.2439V6.36585C10 6.09645 9.77614 5.87805 9.5 5.87805Z" fill="#427A5B"/>
</g>
</svg>
