<svg width="20" height="20" viewBox="0 0 20 20" fill="none" xmlns="http://www.w3.org/2000/svg">
<g id="&#234;&#179;&#181;&#236;&#167;&#128; &#236;&#130;&#172;&#237;&#149;&#173; &#236;&#149;&#132;&#236;&#157;&#180;&#236;&#189;&#152;">
<path id="Vector" d="M14.5761 0.951772C14.7105 0.573038 14.4927 0.163625 14.0897 0.0373228C13.6867 -0.0889795 13.2511 0.115664 13.1166 0.494398L12.3474 2.66207C12.213 3.0408 12.4308 3.45021 12.8337 3.57652C13.2368 3.70282 13.6724 3.49818 13.8069 3.11944L14.5761 0.951772ZM19.2618 0.934818C19.5623 1.21713 19.5623 1.67483 19.2618 1.95713L16.6977 4.36675C16.3973 4.64906 15.9104 4.64906 15.61 4.36675C15.3095 4.08444 15.3095 3.62674 15.61 3.34443L18.1741 0.934818C18.4745 0.652517 18.9614 0.652517 19.2618 0.934818ZM10.1237 2.40103C8.97918 1.24882 6.96011 1.53751 6.23209 2.95745L0.183058 14.7555C-0.166203 15.4367 -0.00577254 16.252 0.579622 16.7708L2.05524 18.0786C2.59608 18.5579 3.39006 18.6856 4.06973 18.4026L5.52354 17.7973C6.18205 19.0997 7.59467 20 9.23108 20C11.4969 20 13.3336 18.2739 13.3336 16.1446C13.3336 15.6239 13.2238 15.1273 13.0247 14.6742L16.5323 13.2138C18.0317 12.5895 18.4286 10.7622 17.3096 9.63567L10.1237 2.40103ZM11.617 15.2602C11.732 15.534 11.7952 15.8324 11.7952 16.1446C11.7952 17.4754 10.6473 18.5542 9.23108 18.5542C8.22246 18.5542 7.34995 18.007 6.93123 17.2112L11.617 15.2602ZM16.4103 6.74642C16.4103 6.34719 16.7547 6.02354 17.1795 6.02354H19.2308C19.6556 6.02354 20 6.34719 20 6.74642C20 7.14566 19.6556 7.46931 19.2308 7.46931H17.1795C16.7547 7.46931 16.4103 7.14566 16.4103 6.74642Z" fill="#222222"/>
</g>
</svg>
