<svg width="18" height="16" viewBox="0 0 18 16" fill="none" xmlns="http://www.w3.org/2000/svg">
<g id="&#236;&#132;&#164;&#236;&#160;&#149; &#236;&#149;&#132;&#236;&#157;&#180;&#236;&#189;&#152;">
<path id="Icon" d="M12.2386 4.67538C13.1814 4.67538 13.9845 4.06595 14.3162 3.20182H17.2056C17.6334 3.20182 18 2.81069 18 2.33769C18 1.8647 17.6421 1.47356 17.2056 1.47356H14.3249C13.9932 0.609437 13.1814 0 12.2386 0C11.2958 0 10.484 0.609437 10.1523 1.47356H0.820563C0.357905 1.47356 0 1.8647 0 2.33769C0 2.81069 0.366634 3.20182 0.820563 3.20182H10.1523C10.484 4.06595 11.2958 4.67538 12.2386 4.67538ZM12.2386 3.44741C11.645 3.44741 11.1649 2.95623 11.1649 2.33769C11.1649 1.70097 11.645 1.21887 12.2386 1.21887C12.8409 1.21887 13.3036 1.70097 13.3036 2.33769C13.3036 2.95623 12.8409 3.44741 12.2386 3.44741ZM0.785645 7.14042C0.357905 7.14042 0 7.52246 0 8.00455C0 8.46845 0.366634 8.85958 0.785645 8.85958H3.77983C4.10281 9.72371 4.91465 10.3422 5.86615 10.3422C6.80019 10.3422 7.61203 9.72371 7.94374 8.85958H17.1794C17.6334 8.85958 18 8.47754 18 8.00455C18 7.52246 17.6421 7.14042 17.1794 7.14042H7.94374C7.61203 6.27629 6.80019 5.66686 5.86615 5.66686C4.92338 5.66686 4.11154 6.27629 3.77983 7.14042H0.785645ZM5.86615 9.11427C5.26382 9.11427 4.79243 8.62308 4.79243 8.00455C4.79243 7.36782 5.26382 6.88573 5.86615 6.88573C6.46848 6.88573 6.93113 7.36782 6.93113 8.00455C6.93113 8.62308 6.46848 9.11427 5.86615 9.11427ZM12.2386 16C13.1814 16 13.9932 15.3906 14.3249 14.5264H17.2056C17.6334 14.5264 18 14.1353 18 13.6623C18 13.1802 17.6421 12.7982 17.2056 12.7982H14.3162C13.9932 11.9341 13.1814 11.3246 12.2386 11.3246C11.2958 11.3246 10.484 11.9341 10.1523 12.7982H0.820563C0.357905 12.7982 0 13.1893 0 13.6623C0 14.1353 0.366634 14.5264 0.820563 14.5264H10.1523C10.484 15.3906 11.2958 16 12.2386 16ZM12.2386 14.7811C11.645 14.7811 11.1649 14.2808 11.1649 13.6623C11.1649 13.0347 11.645 12.5435 12.2386 12.5435C12.8409 12.5435 13.3036 13.0347 13.3036 13.6623C13.3036 14.2808 12.8409 14.7811 12.2386 14.7811Z" fill="#222222"/>
</g>
</svg>
