<svg width="16" height="16" viewBox="0 0 16 16" fill="none" xmlns="http://www.w3.org/2000/svg">
<g id="&#236;&#130;&#173;&#236;&#160;&#156; &#236;&#149;&#132;&#236;&#157;&#180;&#236;&#189;&#152;">
<path id="Vector" d="M6.66665 3.27642H9.33331C9.33331 2.558 8.73638 1.97561 7.99998 1.97561C7.26358 1.97561 6.66665 2.558 6.66665 3.27642ZM5.66665 3.27642C5.66665 2.01919 6.71131 1 7.99998 1C9.28865 1 10.3333 2.01919 10.3333 3.27642H14.1666C14.4428 3.27642 14.6666 3.49482 14.6666 3.76423C14.6666 4.03363 14.4428 4.25203 14.1666 4.25203H13.2872L12.5059 12.1292C12.3819 13.3794 11.305 14.3333 10.0175 14.3333H5.98244C4.69501 14.3333 3.61808 13.3794 3.49407 12.1292L2.7127 4.25203H1.83331C1.55717 4.25203 1.33331 4.03363 1.33331 3.76423C1.33331 3.49482 1.55717 3.27642 1.83331 3.27642H5.66665ZM6.99998 6.36585C6.99998 6.09645 6.77611 5.87805 6.49998 5.87805C6.22384 5.87805 5.99998 6.09645 5.99998 6.36585V11.2439C5.99998 11.5133 6.22384 11.7317 6.49998 11.7317C6.77611 11.7317 6.99998 11.5133 6.99998 11.2439V6.36585ZM9.49998 5.87805C9.22385 5.87805 8.99998 6.09645 8.99998 6.36585V11.2439C8.99998 11.5133 9.22385 11.7317 9.49998 11.7317C9.77611 11.7317 9.99998 11.5133 9.99998 11.2439V6.36585C9.99998 6.09645 9.77611 5.87805 9.49998 5.87805Z" fill="#999999"/>
</g>
</svg>
